/* XPM */
static char *First1700498021[] = {
/* columns rows colors chars-per-pixel */
"120 120 30 1 ",
"  c #0D0D0D",
". c #10100F",
"X c #100F10",
"o c #0F1010",
"O c #111111",
"+ c #1B1613",
"@ c #1C1916",
"# c #161518",
"$ c #1C1C1C",
"% c #241C16",
"& c #281F17",
"* c #231E1B",
"= c #24201D",
"- c #2C231B",
"; c #31251A",
": c #352A1F",
"> c #3A2C1E",
", c #3F311F",
"< c #212121",
"1 c #2D2621",
"2 c #2A2A2A",
"3 c #322A22",
"4 c #3B2E21",
"5 c #3E3121",
"6 c #343434",
"7 c #393939",
"8 c #44331F",
"9 c #412F20",
"0 c #443321",
"q c #483520",
/* pixels */
"5505>-@++#@-55,543=####O#####O##O+#O++###O++#O+#O###+O#+###O++##@OO@O@@#o@@O@O#@#O@O#@#O#O@##O@###O#@O@->,555:=@##+%>,00",
"0800,;+...+;,8808>%O..OO....OOOOooOOooooOOooOoOOoOooOOooooOOooooOOOOooOOooOoOOooooOOooooo#ooOoOOo.oo..+;,8qqq:=OOO#->880",
"0q009;+X.O+;888q8>&....OO...oOOooO.O.OoooOOooOooOooO...OoooOoOooOooOoooooooooooooooooOoo..ooo.o.oOoo...-,qq88>&....&>000",
"0qqq9;%Xoo+-80qq8>&...O.....oOoOOooooooooOooooOo.o..OoooooOooooooOooooooooooO.oooO.O.ooO..oo.O........+-5qq88>&#...&,00q",
"00qq5;+.oO@-,0888,=.o.oo.ooOoOooooooOoooooOOoooooOoooOO.....OoooooooOooOoooooooo.ooo.oooooooooOoO.oooo@-5qqq8>%.OO#->000",
"50005-@##O@-40805:=.#O##O#OO+OOoO#OoO++OOO#OO+OO+OO#O#OO#O#OO+O#OOOOoOooo#OoO@#o#O#o@oo@OO@O#@OO@OO#O#@-5550,;=+OO#=4500",
"333311<$$$=-333331*$$$$$$$$$$$$$<$$$$$$$$$$$<$$$$$$$$$$$$$$$$$$$$$@ooOoo#$$$$$$$$$$$$$$$$$$$$$$$$$$$$$$-133311<$$$=<1333",
"<<1<<<<<<<<<<1<<<<<<<<<<=<<<<<<<<<<<<<<<$<<<<<<<<<<$<<<<<<<<<<<<<<$@O.oO@$<<<<<<<<<<<<<<<<<<$<<<<$<<<<<<2<1<<=<<<=<<<<2<",
"<<<<<<<<<<<<<<<<<<<<<<<<<<<<<<<<<<<<<<<<<<<<<<<<<<<<<<<<<<<<<<<<<<$#oooO@$<<<<<<<<<<<<<<<<<<<<<<<<<<<<<<<<<<<<<<<<<<<<<<",
"<<<<<<<<<<<<<<<<<<<<<<<<<<<<<<<<<<<<<<<<<<<<<<<<<<<<<<<<<<<<<<<<<<$#ooooO<<<<<<<<<<<<<<<<<<<<<<<<<<<<<<<<<<<<<<<<<<<<<<<",
"<<<<<<<<<<<<<<<<<<<<<<<<<<<<<<<<<<<<<<<<<<<<<<<<<<<<<<<<<<<<<<<<<<<#OooO#<<<<<<<<<<<<<<<<<<<<<<<<<<<<<<<<<<<<<<<<<<<<<<<",
"<<<<<<<<<<<<<<<<<<<<<<<<<<<<<<<<<<<<<<<<<<<<<<<<<<<<<<<<<<<<<<<<<<$ooooO#$<<<<<<<<<<<<<<<<<<<<<<<<<<<<<<<<<<<<<<<<<<<<<<",
"<<<<<<<<<<<<<<<<<<<<<<<<<<<<<<<<<<<<<<<<<<<<<<<<<<<<<<<<<<<<<<<<<<$@OooO@$<<<<<<<<<<<<<<<<<<<<<<<<<<<<<<<<<<<<<<<<<<<<<<",
"<<<<<<<<<<<<<<<<<<<<<<<<<<<<<<<<<<<<<<<<<<<<<<<<<<<<<<<<<<<<<<<<<<$@ooooO<<<<<<<<<<<<<<<<<<<<<<<<<<<<<<<<<<<<<<<<<<<<<<<",
"$<<<<<<<<<<<<<<<<<<<<<<<<<<<<<<<<<<<<<<<<<<<<<<<<<<<<<<<<<<<<<<<<<$@Oooo#$<<<<<<<<<<<<<<<<<<<<<<<<<<<<<<<<<<<<<<<<<<<<2<",
"<<<<<<<<<<<<<<<<<<<<<<<<<<<<<<<<<<<<<<<<<<<<<<<<<<<<<<<<<<<<<<<<<<$$Oooo#<<<<<<<<<<<<<<<<<<<<<<<<<<<<<<<<<<<<<<<<<<<<<<<",
"<<<<<<<<<<<<<<<<<<<<<<<<<<<<<<<<<<<<<<<<<<<<<<<<<<<<<<<<<<<<<<<<<<<#oooO@<<<<<<<<<<<<<<<<<<<<<<<<<<<<<<<<<<<<<<<<<<<<<<<",
"$<<<<<<<<<<<<$<<<<<<<<<<<<<<<<<<<<<<<<<<<<<<<<<<<<<<<<<<<<<<<<<<<<$#oooO@$<<<<<<<<<<<<<<<<<<<<<<<<<<<<<<<<<<<<<<<<<<<<<<",
"#$$$$$#$$$$$#$@$#$$$$$+$<<<<<<<<<<<<<<<<<<<<<<<<<<<<<<<<<<<<<<<<<<$OoooOO<<<<<<<<<<<<<<<<<<<<<<<<<<<<<<<<<<<<<<<<<<<<<<<",
"OOOOOOOOOOOOO#OOOOOOoOO#$<<<<<<<<<<<<<<<<<<<<<<<<<<<<<<<<<<<<<<<<<$#OooO@$<<<<<<<<<<<<<<<<<<<<<<<<<<<<<<<<<<<<<<<<<<<<<<",
".O..oO.o..o..Oooooo.ooO+$<<<<<<<<<<<<<<<<<<<<<<<<<<<<<<<<<<<<<<<<<$@OOoo#$<<<<<<<<<<<<<<<<<<<<<<<<<<<<<<<<<<<<<<<<<<<<<<",
"oo..oo.OOooOooOoO.OOooo#$<<<<<<<<<<2<<<<<<<<<<<<<<<<<<<<<<<<<<<<<<$@OoOO#$<<<<<<<<<<<<<<<<<<<<<<<<<<<<<<<<<<<<<<<<<<<<<<",
"OO..OOoooOoooOooO.ooo.o$$<<<<<<<<<<<<<<<<<<<<<<<<<<<<<<<<<<<<<<<<<<OoooO#<<<<<<<<<<<<<<<<<<<<<<<<<<<<<<<<<<<<<<<<<<<<<<<",
"#####O.OooOO#+##+Oooo..#$<<<<<<<<<<<<<<<<<<<<<<<<<<<<<<<<<<<<<<<<<$@OOoO#$<<<<<<<<<<<<<<<<<<<<<<<<<<<<<<<<<<<<<<<<<<<<<<",
"2222<<Oooo#<22222<#o.oO#$<<<<<<<<<<<<<<<<<<<<<<<<<<<<<<<<<<<<<<<<<$@oooo#$<<<<<<<<<<<<<<<<<<<<<<<<<<<<<<<<<<<<<<<<<<<<<<",
"666662+ooo@<666666<oOoO+$<<<<<<<<<<<<<<<<<<<<<<<<<<<<<<<<<<<<<<<<<$#oooO#<<<<<<<<<<<<<<<<<<<<<<<<<<<<<<<<<<<<<<<<<<<<<<<",
"777762$Ooo$<777772< Ooo#$<<<<<<<<<<<<<<<<<<<<<<<<<<<<<<<<<<<<<<<<<$#oooO#$<<<<<<<<<<<<<<<<<<<<<<<<<<<<<<<<<<<<<<<<<<<<<<",
"777772#ooo$2777776<.ooo#$<<<<<<<<<<<<<<<<<<<<<<<<<<<<<<<<<<<<<<<<<<OoooO#<<<<<<<<<<<<<<<<<<<<<<<<<<<<<<<<<<<<<<<<<<<<<<<",
"777772$oo.+2677776< ooo+$<<<<<<<<<<<<<<<<<<<<<<<<<<<<<<<<<<<<<<<<<$#OoooO<<<<<<<<<<<<<<<<<<<<<<<<<<<<<<<<<<<<<<<<<<<<<<<",
"777762#oo.+2677776<oooo#$<<<<<<<<<<<<<<<<<<<<<<<<<<<<<<<<<<<<<<<<<$$OoOo$$<<<<<<<<<<<<<<<<<<<<<<<<<<<<<<<<<<<<<<<<<<<<<<",
"777762+ooo#2677776< ooO+$<<<<<<<<<<<<<<<<<<<<<<<<<<<<<<<<<<<<<<<<<$@oooo#$<<<<<<<<<<<<<<<<<<<<<<<<<<<<<<<<<<<<<<<<<<<<<<",
"777772+ooo#2677772<.O.O#$<<<<<<<<<<<<<<<<<<<<<<<<<<<<<<<<<<<<<<<<<$@Oooo@$<<<<<<2<<<<<<<<<<<<<<<<<<<<<<<<<<<<<<<<<<<<<<<",
"777772#ooo$<777776< oo.#$<<<<<<<<<<<<<<<<<<<<<<<<<<<<<<<<<<<<<<<<<$#oooO@$<<<<<<<<<<<<<<<<<<<<<<<<<<<<<<<<<<<<<<<<<<<<<<",
"777762$Oo.#2777766<.o.O#$<<<<<<<<<<<<<<<<<<<<<<<<<<<<<<<<<<<<<<<<<$@oooO#$<<<<<<<<<<<<<<<<<<<<<<<<<<<<<<<<<<<<<<<<<<<<<<",
"777762$Ooo+2677776<.ooo@$<<<<<<<<<<<<<<<<<<<<<<<<<<<<<<<<<<<<<<<<<$#ooOO@$<<<<<<<<<<<<<<<<<<<<<<<<<<<<<<<<<<<<<<<<<<<<<<",
"677762#o.O#2677772<Oooo#$<<<<<<<<<<<<<<<<<<<<<<<<<<<<<<<<<<<<<<<<<$#OooO#<<<<<<<<<<<<<<<<<<<<<<<<<<<<<<<<<<<<<<<<<<<<<<<",
"26262<#ooo#<226262$.ooo#$<<<<<<<<<<<<<<<<<<<<<<<<<<<<<<<<<<<<<<<<<$#O.o.#$<<<<<<<<<<<<<<<<<<<<<<<<<<<<<<<<<<<<<<<<<<<<<<",
"<<<<=#+oO.O@<<<<$$#.ooO+<<<<<<<<<<<<<<<<<<<<<<<<<<<<<<<<<<<<<<<<<<$@OO.O#<<<<<<<<<<<<<<<<<<<<<<<<<<<<<<<<<<<<<<<<<<<<<<<",
"OOOOOOo..OoOOO#O#o..ooo#$$<<<<<<<<<<<<<<<<<<<<<<<<<<<<<2<<<<<<<<<<$#.oOOO<<<<<<<<<<<<<<<<<<<<<<<<<<<<<<<<<<<<<<<<<<<<<<<",
"Ooo..OoOoooo...o.o..ooo$$<<<<<<<<<<<<<<<<<<<<<<<<<<<<<<<<<<<<<<<<<$@O..O@$<<<<<<<<<<<<<<<<<<<<<<<<<<<<<<<<<<<<<<<<<<<<<<",
"Oo..oooOooO.oOOO..ooooO+$<<<<<<<<<<<<<<<<<<<<<<<<<<<<<<<<<<<<<<<<<$#ooo.#<<<<<<<<<<<<<<<<<<<<<<<<<<<<<<<<<<<<<<<<<<<<<<<",
"OOOOOO...O.OOOOOOoooO.o#$<<<<<<<<<<<<<<<<<<<<<<<<<<<<<<<<<<<<<<<<<$@oooO#$<<<<<<<<<<<<<<<<<<<<<<<<<<<<<<<<<<<<<<<<<<<<<<",
"<<<<=#OOooO$<<<<<$o.ooo+$<<<<<<<<<<<<<<<<<<<<<<<<<<<<<<<<<<<<<<<<<<OO.OO#<<<<<<<<<<<<<<<<<<<<<<<<<<<<<<<<<<<<<<<<<<<<<<<",
"62662<#ooo+<262662$.ooo#$<<<<<<<<<<<<<<<<<<<<<<<<<<<<<<<<<<<<<<<<<$#oooO#$<<<<<<<<<<<<<<<<<<<<<<<<<<<<<<<<<<<<<<<<<<<<<<",
"777772+o.o#2667772<.OOO+$<<<<<<<<<<<<<<<<<<<<<<<<<<<<<<<<<<<<<<<<<$#Oooo@$<<<<<<<<<<<<<<<<<<<<<<<<<<2<<<<<<<<<<<<<<<<<<<",
"777772#oOo#2677776<oooo#$<<<<<<<<<<<<<<<<<<<<<<<<<<<<<<<<<<<<<<<<<<#OoOo#$<<<<<<<<<<<<<<<<<<<<<<<<<<<<<<<<<<<<<<<<<<<<<<",
"677772$oo.O2677776<oooo#$<<<<<<<<<<<<<<<<<<<<<<<<<<<<<<<<<<<<<<<<<$#Oo.o@$<<<<<<<<<<<<<<<<<<<<<<<<<<<<<<<<<<<<<<<<<<<<<<",
"777762#oOo#2777776<oooo+$<<<<<<<<<<<<<<<<<<<<<<<<<<<<<<<<<<<<<<<<<$@..o.#<<<<<<<<<<<<<<<<<<<<<<<<<<<<<<<<<<<<<<<<<<<<<<<",
"777772#ooo#2677776<.oo.+$<<<<<<<<<<<<<<<<<<<<<<<<<<<<<<<<<<<<<<<<<$#oooO+<<<<<<<<<<<<<<<<<<<<<<<<<<<<<<<<<<<<<<<<<<<<<<<",
"777762$ooo+2677772<  O.#<<<<<<<<<<<<<<<<<<<<<<<<<<<<<<<<<<<<<<<<<<$@oo..#$<<<<<<<<<<<<<<<<<<<<<<<<<<<<<<<<<<<<<<<<<<<<<<",
"777762$ooO+2777776< OOO#$$<<<<<<<<<<<<<<<<<<<<<<<<<<<<<<<<<<<<<<<<$#oOoO$$<<<<<<<<<<<<<<<<<<<<<<<<<<<<<<<<<<<<<<<<<<<<<<",
"777762+oOo#2677776<.O O#$<<<<<<<<<<<<<<<<<<<<<<<<<<<<<<<<<<<<<<<<<$#OoOO#$<<<<<<<<<<<<<<<<<<<<<<<<<<<<<<<<<<<<<<<<<<<<<<",
"777772#o..#2677772<..O.#<<<<<<<<<<<<<<<<<<<<<<<<<<<<<<<<<<<<<<<<<<$#O OO#$<<<<<<<<<<<<<<<<<<<<<<<<<<<<<<<<<<<<<<<<<<<<<<",
"777762$o.o#2777776<.O..#$<<<<<<<<<<<<<<<<<<<<<<<<<<<<<<<<<<<<<<<<<$+OO.O@$<<<<<<<<<<<<<<<<<<<<<<<<<<<<<<<<<<<<<<<<<<<<<<",
"666662+ o #<666666$o..O##$<$<<$<$$<$$<$<<<<<<$<<<$<$$$$$$<$<$$$<<<$#OOO #$$$$$$$$$<<<$<$$<<$<<<=<<$$<$$$<$$$$$<$<$<<$<<<",
"<222<$o   o$<2222<#o.OOO+$#$$+$#$$@$#$$#+$##@$##$$$$$$$$$$#$$#$$#@#OO O O#$$$$$$$$#$+$#$$+$#$###$#$#$$$$$$$$$#$$$#+$#+$#",
"+#@#         O####...OoOOOOOOOOOoOOOOOOOOOOOOOOOOOOOOOOOooOOOOOOOOOO.oOOOOOOOOOOooOOOOOOOOOOOOOOOOOOOOOOooOOOOOOOOOOOOOO",
"oo            . .o.Oo..O.OoOO.OoooooOO.O.OO.oO..O.OoOoOooo.OOooOOoO..O OOoO.OoO.oooOOO.OoOOO.OOOo.OOOoOooo.OO.oOo.OoOO..",
"oo O         o...oOoo.oOO..oO.oooooO.OoOooOoOoOOoO.ooOoo.oooo.O.Ooooo OO OO..oO.oOooOo.oooooo.. O.oooOooooooo.O.oOOo.O.O",
"oo          O...Oo.oO.O ooOoo.o.ooOo.oo..Ooo.o.oO Oo....ooooo.OooOoooOO  Ooo.OoooooO..OoOoOooOoOOo.Oo.o ooOoOOooOooo.ooo",
"OO#Ooo    ..OOOOooOOoooOOOOOOOOoOoOoOOOOoOOoO.OOOO#..oOoOoooOOOOooOo..OoO#OOOOOoOoooOOOOooooO.OOOOOOoo#.OoOOO.OOooooooo#",
"$#$$$$#$+$###$#$$+OoOOOO#$#$$#$$$$$+$#$$#+$$$$$##$#$$$$$$$$@$$$$$+$OoOooO##$$#$$$$$+$#$$$+$$$$$##$$$+$$$$$$#$$#$$$$$$$$$",
"$<<<$<<<<<<<=<<<<$#.oOO#$<<<<<$<<<<<<<<<<<<<<<<<<<=<<$<<<<$<<<<<<<$#Oooo+$=<<$<<<<<<<<<<<<<<=<<$<<<<<<$<<<<<<<=<$<<<<<<<",
"<<<<<<<<<<<<<<<<<$#Oooo+$=<<<<<<<<<<<<<<<<<<<<<<<<<<<<<<<<<<<<<<<=$#OOoo#<<<<<<<<<<<<<<<<<<<<<<<<<<<<<<<<<<<<<<<<<<<<<<<",
"<<<<<<<<<<<<<<<<<<OoOoO#$<<<<<<<<<<<<<<<<<<<<<<<<<<<<<<<<<<<<<<<<<$$oooO@<<<<<<<<<<<<<<<<<<<<<<<<<<<<<<<<<<<<<<<<<<<<<<<",
"<<<<<<<<<<<<<<<<<$+oooO+$<<<<<<<<<<<<<<<<<<<<<<<<<<<<<<<<<<<<<<<<<$#oooOo<<<<<<<<<<<<<<<<<<<<<<<<<<<<<<<<<<<<<<<<<<<<<<<",
"$<<<<<<<<<<<<<<<<<#oooo#$<<<<<<<<<<<<<<<<<<<<<<<<<<<<<<<<<<<<<<<<<<#OooO#$<<<<<<<<<<<<<<<<<<<<<<<<<<<<<<<<<<<<<<<<<<<<<<",
"<<<<<<<<<<<<<<<<<$+oooO#$<<<<<<<<<<<<<<<<<<<<<<<<<<<<<<<<<<<<<<<<<$#O.oO#<<<<<<<<<<<<<<<<<<<<<<<<<<<<<<<<<<<<<<<<<<<<<<<",
"<<<<<<<<<<<<<<<<<$+oooo+$<<<<<<<<<<<<<<<<<<<<<<<<<<<<<<<<<<<<<<<<<$#OooO@$<<<<<<<<<<<<<<<<<<<<<<<<<<<<<<<<<<<<<<<<<<<<<<",
"<<<<<<<<<<<<<<<<<$#oooo#$<<<<<<<<<<<<<<<<<<<<<<2<<<<<<<<<<<<<<<<<<$#oo.OO<<<<<<<<<<<<<<<<<<<<<<<<<<<<<<<<<<<<<<<<<<<<<<<",
"<<<<<<<<<<<<<<<<<$OooOO#$<<<<<<<<<<<<<<<<<<<<<<<<<<<<<<<<<<<<<<<<<$#OOoo#$<<<<<<<<<<<<<<<<<<<<<<<<<<<<<<<<<<<<<<<<<<<<<<",
"<<<<<<<<<<<<<<<<<$#oooO+$<<<<<<<<<<<<<<<<<<<<<<<<<<<<<<<<<<<<<<<<<$@OooO@$<<<<<<<<<<<<<<<<<<<<<<<<<<<<<<<<<<<<<<<<<<<<<<",
"<<<<<<<<<<<<<<<<<$#....#$<<<<<<<<<<<<<<<<<<<<<<<<<<<<<<<<<<<<<<<<<$@Oo.O#$<<<<<<<<<<<<<<<<<<<<<<<<<<<<<<<<<<<<<<<<<<<<<<",
"$<<<<<<<<<<<<<<<<$#.O..#$<<<<<<<<<<<<<<<<<<<<<<<<<<<<<<<<<<<<<<<<<$#O..O#<<<<<<<<<<<<<<<<<<<<<<<<<<<<<<<<<<<<<<<<<<<<<<<",
"<<<<<<<<<<<<<<<<<$#....#$<<<<<<<<<<<<<<<<<<<<<<<<<<<<<<<<<<<<<<<<<$#...##$<<<<<<<<<<<<<<<<<<<<<<<<<<<<<<<<<<<<<<<<<<<<<<",
"<<<<<<<<<<<<<<<<<$#O.O.#$<<<<<<<<<<<<<<<<<<<<<<<<<<<<<<<<<<<<<<<<<$#.oo.@<<<<<<<<<<<<<<<<<<<<<<<<<<<<<<<<<<<<<<<<<<<<<<<",
"<<<<<<<<<<<<<<<<<$#.ooO#$<<<<<<<<<<<<<<<<<<<<<<<<<<<<<<<<<<<<<<<<<$#...O#$<<<<<<<<<<<<<<<<<<<<<<<<<<<<<<<<<<<<<<<<<<<<<<",
"<<<<<<<<<<<<<<<<<$@.ooO@$<<<<<<<<<<<<<<<<<<<<<<<<<<<<<<<<<<<<<<<<<$@o..O#$<<<<<<<<<<<<<<<<<<<<<<<<<<<<<<<<<<<<<<<<<<<<<<",
"$<<<<<<<<<<<<<<<<$#ooo.#<<<<<<<<<<<<<<<<<<<<<<<<<<<<<<<<<<<<<<<<<<$#Ooo.#<<<<<<<<<<<<<<<<<<<<<<<<<<<<<<<<2<<<<<<<<<<<<<<",
"<<<<<<<<<<<<<<<<<$#oo.O#$<<<<<<<<<<<<<<<<<<<<<<<<<<<<<<<<<<<<<<<<<<#Oo.O#$<<<<<<<<<<<<<<<<<<<<<<<<<<<<<<<<<<<<<<<<<<<<<<",
"<<<<<<<<<<<<<<<<<$#...O#$<<<<<<<<<<<<<<<<<<<<<<<<<<<<<<<<<<<<<<<<<<OOooO#$<<<<<<<<<<<<<<<<<<<<<<<<<<<<<<<<<<<<<<<<<<<<<<",
"<<<<<<<<<<<<<<<<<$@.ooO@$<<<<<<<<<<<<<<<<<<<<<<<<<<<<<<<<<<<<<<<<<$$OooO@<<<<<<<<<<<<<<<<<<<<<<<<<<<<<<<<<<<<<<<<<<<<<<<",
"<<<<<<<<<<<<<<<<<$#ooOoO$<<<<<<<<<<<<<<<<<<<<<<<<<<<<<<<<<<<<<<<<<$OOooOO<<<<<<<<<<<<<<<<<<<<<<<<<<<<<<<<<<<<<<<<<<<<<<<",
"<<<<<<<<<<<<<<<<<$#oOoo#$<<<<<<<<<<<<<<<<<<<<<<<<<<<<<<<<<<<<<<<<<<@oooo#$<<<<<<<<<<<<<<<<<<<<<<<<<<<<<<<<<<<<<<<<<<<<<<",
"<<<<<<<<<<<<<<<<<$#oooo@$<<<<<<<<<2<<<<<<<<<<<<<<<<<<<<<<<<<<<<<<<$@@ooo#$<<<<<<<<<<<<<<<<<<<<<<<<<<<<<<<<<<<<<<<<<<<<<<",
"<<<<<<<<<<<<<<<<<$#oooo#$<<<<<<<<<<<<<<<<<<<<<<<<<<<<<<<<<<<<<<<<<$#oooo@$<<<<<<<<<<<<<<<<<<<<<<<<<<<<<<<<<<<<<<<<<<<<<<",
"<<<<<<<<<<<<<<<<<$Oo..O#$<<<<<<<<<<<<<<<<<<<<<<<<<<<<<<<<<<<<<<<<<$#ooooO$<<<<<<<<<<<<<<<<<<<<<<<<<<<<<<<<<<<<<<<<<<<<<<",
"<<<<<<<<<<<<<<<<<$@o..O@$<<<<<<<<<<<<<<<<<<<<<<<<<<<<<<<<<<<<<<<<<$@oooo$<<<<<<<<<<<<<<<<<<<<<<<<<<<<<<<<<<<<<<<<<<<<<<<",
"$<<<<<<<<<<<<<<<<$@ooOoO$<<<<<<<<<<<<<<<<<<<<<<<<<<<<<<<<<<<<<<<<<$Ooooo@$<<<<<<<<<<<<<<<<<<<<<<<<<<<<<<<<<<<<<<<<<<<<<<",
"<<<<<<<<<<<<<<<<$$#oooo#$<<<<<<<<<<<<<<<<<<<<<<<<<<<<<<<<<<<<<<<<<$@ooo@#$<<<<<<<<<<<<<<<<<<<<<<<<<<<<<<<<<<<<<<<<<<<<<<",
"<<<<<<<<<<<<<<<<<$#oOoo@$<<<<<<<<<<<<<<<<<<<<<<<<<<<<<<<<<<<<<<<<<$#oooo#<<<<<<<<<<<<<<<<<<<<<<<<<<<<<<<<<<<<<<<<<<<<<<<",
"<<<<<<<<<<<<<<<<<$@oO.o#$<<<<<<<<<<<<<<<<<<<<<<<<<<<<<<<<<<<<<<<<<$#Oooo#$<<<<<<<<<<<<<<<<<<<<<<<<<<<<<<<<<<<<<<<<<<<<<<",
"<<<<<<<<<<<<<<<<<$@oOoO#$<<<<<<<<<<<<<<<<<<<<<<<<<<<<<<<<<<<<<<<<<$OOooO#$<<<<<<<<<<<<<<<<<<<<<<<<<<<<<<<<<<<<<<<<<<<<<<",
"<<<<<<<<<<<<<<<<<$#oooO@$<<<<<<<<<<<<<<<<<<<<<<<<<<<<<<<<<<<<<<<<<$#OooO$$<<<<<<<<<<<<<<<<<<<<<<<<<<<<<<<<<<<<<<<<<<<<<<",
"<<<<<<<<<<<<<<<<<$#oooo#$<<<<<<<<<<<<<<<<<<<<<<<<<<<<<<<<<<<<<<<<<$@OooO#$<<<<<<<<<<<<<<<<<<<<<<<<<<<<<<<<<<<<<<<<<<<<<<",
"$<<<<<<<<<<<<<<<<$#oooo@$<<<<<<<<<<<<<<<<<<<<<<<<<<<<<<<<<<<<<<<<<<@oooo$<<<<<<<<<<<<<<<<<<<<<<<<<<<<<<<<<<<<<<<<<<<<<<<",
"<<<<<<<<<<<<<<<<<$Oo.oo@$<<<<<<<<<<<<<<<<<<<<<<<<<<<<<<<<<<<<<<<<<<@OOO.@<<<<<<<<<<<<<<<<<<<<<<<<<<<<<<<<<<<<<<<<<<<<<<<",
"<<<<<<<<<<<<<<<<<$@oooo#$<<<<<<<<<<<<<<<<<<<<<<<<<<<<<<<<<<<<<<<<<<$%%%$%$<<<<<<<<<<<<<<<<<<<<<<<<<<<<<<<<<<<<<<<<<<<<<<",
"<<<<<<<<<<<<<<<<<$#.oo.#$$<<<<<<<<<<<<<<<<<<<<<<<<<<<<<<<<<<<<<<<<1::::::-<<<<<<<<<<<<<<<<<<<<<<<<<<<<<<<<<<<<<<<<<<<<<<",
"<<<<<<<<<<<<<<<<<$#.ooO@$<<<<<<<<<<<<<<<<<<<<<<<<<<<<<<<<<<<<<<<<<1,00q0,-<<<<<<<<<<<<<<<<<<<<<<<<<<<<<<<<<<<<<<<<<<<<<<",
"<<<<<<<<<<<<<<<<<$#ooo.#<<<<<<<<<<<<<<<<<<<<<<<<<<<<<<<<<<<<<<<<<<:,88q051<<<<<<<<<<<<<<<<<<<<<<<<<<<<<<<<<<<<<<<<<<<<<<",
"<<<<<<<<<<<<<<<<<$@oooo@$<<<<<<<<<<<<<<<<<<<<<<<<<<<<<<<<<<<<<<<<<2,qqqq5:<<<<<<<<<<<<<<<<<<<<<<<<<<<<<<<<<<<<<<<<<<<<<<",
"<<<<<<<<<<<<<<<<<$#....#$<<<<<<<<<<<<<<<<<<<<<<<<<<<<<<<<<<<<<<<<<:,qqqq51<<<<<<<<<<<<<<<<<<<<<<<<<<<<<<<<<<<<<<<<<<<<<<",
"<$<$<<$<$<$<<$<<<$#...o#$$<$<<$<<$<$<<$<<$<$<<$<<$<$*<<<<$<$<<$<<<1,0,504-<<<$<<<$<<$<<=<$<$<<$<<$<<$<$<$<<$<<$<<$<$*<<<",
"$$@@@$@$@$$$@$$@@#oOooO##$@@$$@@@$#$@$#$$@$@@$$#$$+$$#$#@$$$#$$$#@%-;;;--*$$@$#$#$$@#$$#+$$#@$$$$$#$+$$$#$$+#$$#$$+$$#$#",
"ooo#ooooooOOoooo##oo..oOooo#ooo#oOOOoOOOooOooo#oOOoOOoOOoo.OOO.O#O#+@++@+oOOoOOoOOOOOOOOoOOOoo.OOOOOoo.OOoOOOOOOOOoOOoOO",
"#ooooooooooooooo..oo.OoOooooooOooo.Ooo.Ooooooooo..oooOooooooo.oo.....OOOoooO.OoOOooO.oOooOoOoooO..ooooO.ooOOOooo.oo.oooo",
"ooOooo..ooooOOoo...o..o.ooooooooOoooOooOooo#ooooOoo.ooO.oooo..oO..O.O.oOooOoooo.ooOooo.oooOoooooo.OoOooooO.o..Oo.OoOoOO.",
"#..ooooooooooOOoooooO..o.ooooooooO.ooooooooo....ooo.ooooooOooooO.O.ooooooOooO.oOoooOo.OoOooO..ooOooOoO.Oo ..OoooooOoooo.",
"#oOooo###oooOOOOoo#oo..oO##.oo#oOOOOooOOo#ooOO.#OoO#OOooOOOOOoOOOOOOooOOOOOoOOOOooOOOO.ooOOO#$@#+OOooo.O#$+#+#Oooo.O#@$#",
"$$$@$#$$$@$$@@$@@##.o.oo#$@@$#$$#$$$$$$$$@$$$@$@$##+$$$$$+$$$@$$$##$+$$#$$+##@#$+$$###Oooo#<<2222<OOoo#$<2222<$ooo.$<222",
"$$<$<$$<$$$<$<$<$@#.oOo#$<$$<$$<$<$$<$$$<$$$$<<$$<<<<$$<$<$<<$$$<$<=<$<<$<<<<$<<<$<<$+Ooo.+2666762#O..#<667672$Oo.O<2667",
"<<<<<<<<<<<<<<<<<$#oooo@$<<<<<<<<<<<<<<<<<<<<<<<<<<<<<<<<<<<<<<<<<<<<<<<<<<<<<<<<<<<<$Oooo$2777772#O..+<677776<...O<6777",
"<<<<<<<<<<<<<<<<<$@oooo#$<<<<<<<<<<<<<<<<<<<<<<<<<<<<<<<<<<<<<<<<<<<<<<<<<<<<<<<<<<<$#Oooo$2677776$ooO#2677776<o.o#<6777",
"<<<<<<<<<<<<<<<<<$@oooo@$<<<<<<<<<<<<<<<<<<<<<<<<<<<<<<<<<<<<<<<<<<<<<<<<<<<<<<<<<<<<$#.oo$2777772$ooo#<677776$ooo#<6777",
"<<<<<<<<<<<<<<<<<$#oooo$$<<<<<<<<<<<<<<<<<<<<<<<<<<<<<<<<<<<<<<<<<<<<<<<<<<<<<<<<<<<<$OOoo$2677772$oOo+2677762<#oO+<6677",
"<<<<<<<<<<<<<<<<<<$$$#@$$<<<<<<<<<<<<<<<<<<<<<<<<<<<<<<<<<<<<<<<<<<<<<<<<<<<<<<<<<<<<$#+$#$2666662$$$#$<666662$$#$$<2666",
"<<<<<<<<<<<<<<<<<$$<$<$$<<<<<<<<<<<<<<<<<<<<<<<<<<<<<<<<<<<<<<<<<<<<<<<<<<<<<<<<<<<<*$$<$<<<<2<22<$<$<<<<2<22<<$$$<<<22<",
"<<<<<<<<<<<<<<<<<<<<<<<<<<<<<<<<<<<<<<<<<<<<<<<<<<<<<<<<<<<<<<<<<<<<<<<<<<<<<<<<<<<<<<<<<<<<<<<<<<<<<<<<<<<<<<<<<<<<<<<<",
"<<<<<<<<<<<<<<<<<<<<<<<<<<<<<<<<<<<<<<<<<<<<<<<<2<<<<<<<<<<<<<<<<<<<<<<<<<<<<<<<<<<<<<<<<<<<<<<<<<<<<<<<<<<<<<<<<<<<<<<<"
};
