/* XPM */
static char *_b748cd69aac4d26a175d3dece6b07d1vqJeH8wZJXikYUhC[] = {
/* columns rows colors chars-per-pixel */
"120 120 52 1 ",
"  c None",
". c black",
"X c #000100",
"o c #000101",
"O c #000201",
"+ c #000302",
"@ c #020202",
"# c #060606",
"$ c gray4",
"% c #09100D",
"& c #790000",
"* c #7B0202",
"= c #7C0000",
"- c #7D0202",
"; c #7D0D0B",
": c #3A6D76",
"> c #626262",
", c #6D6D6D",
"< c gray46",
"1 c #7C7C7C",
"2 c #7D7E7D",
"3 c #860201",
"4 c #890101",
"5 c #980100",
"6 c #980201",
"7 c #A30201",
"8 c #AA0000",
"9 c #A90201",
"0 c #AA0201",
"q c #AB0A08",
"w c #BF0101",
"e c #CB0101",
"r c #C00806",
"t c #E70100",
"y c #EC0911",
"u c #EF1523",
"i c #F21D2F",
"p c #9B7171",
"a c #B98787",
"s c #B19A9A",
"d c #A9A9A9",
"f c #AAAAAA",
"g c gray67",
"h c gray72",
"j c #AAE5DE",
"k c #C0C0C0",
"l c #CBCBCB",
"z c gray80",
"x c #D9D6D2",
"c c #D6F3EE",
"v c #E7E7E7",
"b c white",
/* pixels */
"                                                                                                                        ",
"                                                                                                                        ",
"                                                                                                                        ",
"                                                 .....................                                                  ",
"                                                 .....................                                                  ",
"                                                 .....................                                                  ",
"                                                 6000000000000000000004                                                 ",
"                                              ...eiiiiiiiiiiiiiiiiiiii0...                                              ",
"                                              ...eiiiiiiiiiiiiiiiiiiii0...                                              ",
"                                              ...eiiiiiiiiiiiiiiiiiiii0.+.                                              ",
"                                          ...*iiiiiiiiiiiiiiiiiiiiiiiiiiii...                                           ",
"                                          ...-iiiiiiiiiiiiiiiiiiiiiiiiiiii...                                           ",
"                                          ...-iiiiiiiiiiiiiiiiiiiiiiiiiiii...                                           ",
"                                          600wiiiiiiiiiiiiiiiiiiiiiiiiiiii++.                                           ",
"                                       ..+eiiiiiiiiiiiiiiiiiiiiiiiiiiiiiii++.                                           ",
"                                       ...eiiiiiiiiiiiiiiiiiiiiiiiiiiiiiii...                                           ",
"                                       ...eiiiiiiiiiiiiiiiiiiiiiiiiiiiiiii..+                                           ",
"                                   ...*uuuiiiiiiiiiiiiiiiiiiiiiiiiiiiiiiiiyyy7++.                                       ",
"                                   ...-iiiiiiiiiiiiiiiiiiiiiiiiiiiiiiiiiiiiii0...                                       ",
"                                   ...-iiiiiiiiiiiiiiiiiiiiiiiiiiiiiiiiiiiiii0...                                       ",
"                                   ...-iiiiiiieeeeeeeeeeeeeeeeeeeeeeeeeeeeeee3...                                       ",
"                                   ...-iiiiiit......++.+++++....++..........+....                                       ",
"                                   ...-iiiiiit......++++++++....++++........+....                                       ",
"                                   ...-iiiiiit......++++..+++....+++++......+....                                       ",
"                                ......-iiir;;pvvvvvvvvvvvvvvvvvvvvvvvvvvvvvvvvvvv$$$                                    ",
"                                ......-iiiq%%1bbbbbbbbbbbbbbbbbbbbbbbbbbbbbbbbbbb$$$                                    ",
"                                ......-iiiq%%1bbbbbbbbbbbbbbbbbbbbbbbbbbbbbbbbbbb$$$                                    ",
"                               ,ggggggseeeaggkbbbbbbbbbbbbbbbbbbbbbbbbbbbbbbbbbbb$$$                                    ",
"                            ...1bbbbbbv...lbbbbbbbbbbbbbbbbbbbbbbbbbbbbbbbbbbbbbb$$$                                    ",
"                            ...1bbbbbbv...lbbbbbbbbbbbbbbbbbbbbbbbbbbbbbbbbbbbbbb$$$                                    ",
"                            ...1bbbbbbv...lbbbbbbbbbbbbbbbbbbbbbbbbbbbbbbbbbbbbbb$$$                                    ",
"                            ...1bbbbbbv...>11111111111111111111111111111111111111...                                    ",
"                            ...1bbbbbbv...#$$$$$$$$$$$$$$$$$$$$$$$$$$$$$$$$$$$$$$...                                    ",
"                            ...1bbbbbbv...#$$$$$$$$$$$$$$$$$$$$$$$$$$$$$$$$$$$$$$...                                    ",
"                             ..<zzzzzzhgggggggggggggggggggggggggggggggggggggggggg...                                    ",
"                                .......bbbbbbbbbbbbbbbbbbbbbbbbbbbbbbbbbbbbbbbbbb...                                    ",
"                                .......bbbbbbbbbbbbbbbbbb..............................                                 ",
"                                .......bbbbbbbbbbbbbbbbbb..............................                                 ",
"                                    ...bbbbbbbbbbbbbbbbbb..............................                                 ",
"                        .........   ...bbbbbbbbbbbbbbb...cccccccccccccccccccccccccccccc...                              ",
"                        .........   ...bbbbbbbbbbbbbbb...cccccccccccccccccccccccccccccc...                              ",
"                        .........   ...bbbbbbbbbbbbbbb...cccccccccccccccccccccccccccccc...                              ",
"                     ...bbbbbbbbb...bbbbbbbbbbbbbbb...:::jjjjjjjjjjjjjjjjjjjjjjjjjjjjjjccc...                           ",
"                     ...bbbbbbbbb...bbbbbbbbbbbbbbb...:::jjjjjjjjjjjjjjjjjjjjjjjjjjjjjjccc...                           ",
"                     ...bbbbbbbbb...bbbbbbbbbbbbbbb...:::jjjjjjjjjjjjjjjjjjjjjjjjjjjjjjccc...                           ",
"                  ...bbbbbbbbbbbb...bbbbbbbbbbbbbbb...::::::jjjjjjjjjjjjjjjjjjjjjjjjjjjjjj...                           ",
"                  ...bbbbbbbbbbbb...bbbbbbbbbbbbbbb...::::::jjjjjjjjjjjjjjjjjjjjjjjjjjjjjj...                           ",
"                  ...bbbbbbbbbbbb...bbbbbbbbbbbbbbb...::::::jjjjjjjjjjjjjjjjjjjjjjjjjjjjjj...                           ",
"                  ...bbbbbbbbbbbb...bbbbbbbbbbbbbbb...::::::jjjjjjjjjjjjjjjjjjjjjjjjjjj:::...                           ",
"                  ...bbbbbbbbbbbb...bbbbbbbbbbbbbbb...::::::jjjjjjjjjjjjjjjjjjjjjjjjjjj:::...                           ",
"                  ...bbbbbbbbbbbb...bbbbbbbbbbbbbbb...::::::jjjjjjjjjjjjjjjjjjjjjjjjjjj:::...                           ",
"                  ...bbbbbbbbbbbb...bbbbbbbbbbbbbbb...:::::::::jjjjjjjjjjjjjjjjjjjjj::::::...                           ",
"                  ...bbbbbbbbbbbb...bbbbbbbbbbbbbbb...:::::::::jjjjjjjjjjjjjjjjjjjjj::::::...                           ",
"                  ...bbbbbbbbbbbb...bbbbbbbbbbbbbbb...:::::::::jjjjjjjjjjjjjjjjjjjjj::::::...                           ",
"                  ...bbbbbbbbbbbb...bbbbbbbbbbbbbbbxxx...::::::::::::::::::::::::::::::...                              ",
"                  ...bbbbbbbbbbbb...bbbbbbbbbbbbbbbxxx...::::::::::::::::::::::::::::::...                              ",
"                  ...bbbbbbbbbbbb...bbbbbbbbbbbbbbbxxx...::::::::::::::::::::::::::::::...                              ",
"                  ...bbbbbbbbbbbb...bbbbbbbbbbbbbbbbbbxxx...::::::::::::::::::............                              ",
"                  ...bbbbbbbbbbbb...bbbbbbbbbbbbbbbbbbxxx...::::::::::::::::::............                              ",
"                  ...bbbbbbbbbbbb...bbbbbbbbbbbbbbbbbbxxx...::::::::::::::::::............                              ",
"                  ...bbbbbbbbbbbb...bbbbbbbbbbbbbbbbbbbbbxxx..................xxxxxxxxx...                              ",
"                  ...bbbbbbbbbbbb...bbbbbbbbbbbbbbbbbbbbbxxx..................xxxxxxxxx...                              ",
"                  ...bbbbbbbbbbbb...bbbbbbbbbbbbbbbbbbbbbxxx..................xxxxxxxxx...                              ",
"                  ...bbbbbbbbbbbb...bbbbbbbbbbbbbbbbbbbbbbbbxxxxxxxxxxxxxxxxxxxxxxxxxxx...                              ",
"                  ...bbbbbbbbbbbb...bbbbbbbbbbbbbbbbbbbbbbbbxxxxxxxxxxxxxxxxxxxxxxxxxxx...                              ",
"                  ...bbbbbbbbbbbb...bbbbbbbbbbbbbbbbbbbbbbbbxxxxxxxxxxxxxxxxxxxxxxxxxxx...                              ",
"                  ...bbbbbbbbbbbb...bbbbbbbbbbbbbbbbbbbbbbbbxxxxxxxxxxxxxxxxxxxxxxxxxxx...                              ",
"                  ...bbbbbbbbbbbb...bbbbbbbbbbbbbbbbbbbbbbbbbbbbbbbbbbbbbbbbbbbbbbbbbbb...                              ",
"                  ...bbbbbbbbbbbb...bbbbbbbbbbbbbbbbbbbbbbbbbbbbbbbbbbbbbbbbbbbbbbbbbbb...                              ",
"                  ...bbbbbbbbbbbb...bbbbbbbbbbbbbbbbbbbbbbbbbbbbbbbbbbbbbbbbbbbbbbbbbbb...                              ",
"                  ...bbbbbbbbbbbb...bbbbbbbbbbbbbbbbbbbbbbbbbbbbbbbbbbbbbbbbbbbbbbbbbbb...                              ",
"                  ...bbbbbbbbbbbb...bbbbbbbbbbbbbbbbbbbbbbbbbbbbbbbbbbbbbbbbbbbbbbbbbbb...                              ",
"                  ...bbbbbbbbbbbb...bbbbbbbbbbbbbbbbbbbbbbbbbbbbbbbbbbbbbbbbbbbbbbbbbbb...                              ",
"                  ...bbbbbbbbbbbb...bbbbbbbbbbbbbbbbbbbbbbbbbbbbbbbbbbbbbbbbbbbbbbbbbbb...                              ",
"                  ...bbbbbbbbbbbb...bbbbbbbbbbbbbbbbbbbbbbbbbbbbbbbbbbbbbbbbbbbbbbbbbbb...                              ",
"                  ...bbbbbbbbbbbb...bbbbbbbbbbbbbbbbbbbbbbbbbbbbbbbbbbbbbbbbbbbbbbbbbbb...                              ",
"                  ...bbbbbbbbbbbb...bbbbbbbbbbbbbbbbbbbbbbbbbbbbbbbbbbbbbbbbbbbbbbbbbbb...                              ",
"                  ...bbbbbbbbbbbb...bbbbbbbbbbbbbbbbbbbbbbbbbbbbbbbbbbbbbbbbbbbbbbbbbbb...                              ",
"                  ...bbbbbbbbbbbb...bbbbbbbbbbbbbbbbbbbbbbbbbbbbbbbbbbbbbbbbbbbbbbbbbbb...                              ",
"                  ...bbbbbbbbbbbb...bbbbbbbbbbbbbbbbbbbbbbbbbbbbbbbbbbbbbbbbbbbbbbbbbbb...                              ",
"                  ...bbbbbbbbbbbb...bbbbbbbbbbbbbbbbbbbbbbbbbbbbbbbbbbbbbbbbbbbbbbbbbbb...                              ",
"                     ..................bbbbbbbbbbbbbbbbbbbbbbbbbbbbbbbbbbbbbbbbbbbbbbbb...                              ",
"                     ..................bbbbbbbbbbbbbbbbbbbbbbbbbbbbbbbbbbbbbbbbbbbbbbbb...                              ",
"                     ..................bbbbbbbbbbbbbbbbbbbbbbbbbbbbbbbbbbbbbbbbbbbbbbbb...                              ",
"                                       ...bbbbbbbbbbbbbbbbbbbbbbbbbbbbbbbbbbbbbbbbbb......                              ",
"                                       ...bbbbbbbbbbbbbbbbbbbbbbbbbbbbbbbbbbbbbbbbbb......                              ",
"                                       ...bbbbbbbbbbbbbbbbbbbbbbbbbbbbbbbbbbbbbbbbbb......                              ",
"                                          ...bbbbbb.........bbbbbbbbbbbbbbbbbbbbb...                                    ",
"                                          ...bbbbbb.........bbbbbbbbbbbbbbbbbbbbb...                                    ",
"                                          ...bbbbbb.........bbbbbbbbbbbbbbbbbbbbb...                                    ",
"                                             ......bbbbbbbbbbbbbbbbbb...bbbbbb...                                       ",
"                                             ......bbbbbbbbbbbbbbbbbb...bbbbbb...                                       ",
"                                             ......bbbbbbbbbbbbbbbbbb...bbbbbb...                                       ",
"                                             ...bbbbbbbbbbbbbbbbbbbbb.........                                          ",
"                                             ...bbbbbbbbbbbbbbbbbbbbb.........                                          ",
"                                             ...bbbbbbbbbbbbbbbbbbbbb.........                                          ",
"                                             ...bbbbbbbbbbbbbbbbbbbbb...bbb...                                          ",
"                                             ...bbbbbbbbbbbbbbbbbbbbb...bbb...                                          ",
"                                             ...bbbbbbbbbbbbbbbbbbbbb...bbb...                                          ",
"                                             ...bbbbbbbbbbbbbbbbbb...bbbbbb...                                          ",
"                                             ...bbbbbbbbbbbbbbbbbb...bbbbbb...                                          ",
"                                             ...bbbbbbbbbbbbbbbbbb...bbbbbb...                                          ",
"                                                ..................bbbbbbbbb...                                          ",
"                                                ..................bbbbbbbbb...                                          ",
"                                                ..................bbbbbbbbb...                                          ",
"                                                         ...bbbbbbbbbbbbbbb...                                          ",
"                                                         ...bbbbbbbbbbbbbbb...                                          ",
"                                                         ...bbbbbbbbbbbbbbb...                                          ",
"                                                         ...bbbbbbbbbbbbbbb...                                          ",
"                                                         ...bbbbbbbbbbbbbbb...                                          ",
"                                                         ...bbbbbbbbbbbbbbb...                                          ",
"                                                            ...............                                             ",
"                                                            ...............                                             ",
"                                                            ...............                                             ",
"                                                                                                                        ",
"                                                                                                                        ",
"                                                                                                                        ",
"                                                                                                                        ",
"                                                                                                                        ",
"                                                                                                                        "
};
