/* XPM */
static char *a87eba45fbdd4123d15bcafd8a1236d3TFvcddjarmZKSZCJ[] = {
/* columns rows colors chars-per-pixel */
"32 32 29 1 ",
"  c #AB1F65",
". c #3DABEA",
"X c #CCE2E1",
"o c #FFDA45",
"O c white",
"+ c #D22F1E",
"@ c #38002C",
"# c #3368DC",
"$ c #800C53",
"% c #341E1A",
"& c #E6336A",
"* c #CCAC68",
"= c #46C657",
"- c #158968",
"; c #C9EC85",
": c #5BECF1",
"> c #FFF6AE",
", c #2C5B6D",
"< c #8CFFDE",
"1 c #45B8B3",
"2 c #683C34",
"3 c #FF8142",
"4 c #37446E",
"5 c #A36D3E",
"6 c #222A5C",
"7 c #566A89",
"8 c #8BABBF",
"9 c black",
"0 c None",
/* pixels */
"00000000000000000000000000000000",
"00000000000000000000999999900000",
"00000000000000000009466666690000",
"00000000000000000094666666449000",
"00000000000000000946666664444900",
"00000000000000009 $$$$$644447790",
"0000000000000009 $$$$$$ 44477790",
"000000000000009 666666   4777790",
"00000000000009466666644  &777790",
"000000000000935555564444&&&77790",
"0000000000093555555344477&&77790",
"0000000000935555553334777&&77490",
"000000000935555553333o777&&74900",
"00000000936666663333ooo77&&49000",
"0000000946666664433oooo77& 90000",
"0000009 $$$$$64444ooooo77 900000",
"000009 $$$$$$ 44477oooo7 9000000",
"00009 666666   4777oooo490000000",
"0009466666644  &777ooo3900000000",
"00946666664444&&&77oo39000000000",
"094777777444477&&77o390000000000",
"097444777744777&&773900000000000",
"094447777787777&&739000000000000",
"096477887778777&&490000000000000",
"096678887778777& 900000000000000",
"096678887778777 9000000000000000",
"09467887777877 90000000000000000",
"00947777777874900000000000000000",
"00097777777849000000000000000000",
"00009777778490000000000000000000",
"00000999999900000000000000000000",
"00000000000000000000000000000000"
};
