/* XPM */
static char *_6bf54633e1a4abab37905cadedf1bd3m5RDllHDMiDkZLQU[] = {
/* columns rows colors chars-per-pixel */
"120 120 52 1 ",
"  c None",
". c black",
"X c #000100",
"o c #000101",
"O c #000201",
"+ c #000302",
"@ c #020202",
"# c #060606",
"$ c gray4",
"% c #09100D",
"& c #790000",
"* c #7B0202",
"= c #7C0000",
"- c #7D0202",
"; c #7D0D0B",
": c #3A6D76",
"> c #626262",
", c #6D6D6D",
"< c gray46",
"1 c #7C7C7C",
"2 c #7D7E7D",
"3 c #860201",
"4 c #890101",
"5 c #980100",
"6 c #980201",
"7 c #A30201",
"8 c #AA0000",
"9 c #A90201",
"0 c #AA0201",
"q c #AB0A08",
"w c #BF0101",
"e c #CB0101",
"r c #C00806",
"t c #E70100",
"y c #EC0911",
"u c #EF1523",
"i c #F21D2F",
"p c #9B7171",
"a c #B98787",
"s c #B19A9A",
"d c #A9A9A9",
"f c #AAAAAA",
"g c gray67",
"h c gray72",
"j c #AAE5DE",
"k c #C0C0C0",
"l c #CBCBCB",
"z c gray80",
"x c #D9D6D2",
"c c #D6F3EE",
"v c #E7E7E7",
"b c white",
/* pixels */
"                                                                                                                        ",
"                                                                                                                        ",
"                                                                                                                        ",
"                                                  +++++++++++++++++++++                                                 ",
"                                                  +++++++++++++++++++++                                                 ",
"                                                  +++++++++++++++++++++                                                 ",
"                                                 4000000000000000000006                                                 ",
"                                              +++0iiiiiiiiiiiiiiiiiiiie+++                                              ",
"                                              +++0iiiiiiiiiiiiiiiiiiiie+++                                              ",
"                                              +++0iiiiiiiiiiiiiiiiiiiie+++                                              ",
"                                           +++iiiiiiiiiiiiiiiiiiiiiiiiiiii&+++                                          ",
"                                           +++iiiiiiiiiiiiiiiiiiiiiiiiiiii=+++                                          ",
"                                           +++iiiiiiiiiiiiiiiiiiiiiiiiiiii=+++                                          ",
"                                           +++iiiiiiiiiiiiiiiiiiiiiiiiiiiiw006                                          ",
"                                           +++iiiiiiiiiiiiiiiiiiiiiiiiiiiiiiie+++                                       ",
"                                           +++iiiiiiiiiiiiiiiiiiiiiiiiiiiiiiie+++                                       ",
"                                           +++iiiiiiiiiiiiiiiiiiiiiiiiiiiiiiie+++                                       ",
"                                       +++7yyyiiiiiiiiiiiiiiiiiiiiiiiiiiiiiiiiuuu&+++                                   ",
"                                       +++0iiiiiiiiiiiiiiiiiiiiiiiiiiiiiiiiiiiiii=+++                                   ",
"                                       +++0iiiiiiiiiiiiiiiiiiiiiiiiiiiiiiiiiiiiii=+++                                   ",
"                                       +++3eeeeeeeeeeeeeeeeeeeeeeeeeeeeeeeiiiiiii=+++                                   ",
"                                       +++++++++++++++++++++++++++++++++++tiiiiii=+++                                   ",
"                                       +++++++++++++++++++++++++++++++++++tiiiiii=+++                                   ",
"                                       +++++++++++++++++++++++++++++++++++tiiiiii=+++                                   ",
"                                    $$$vvvvvvvvvvvvvvvvvvvvvvvvvvvvvvvvvvvp;;riii=++++++                                ",
"                                    $$$bbbbbbbbbbbbbbbbbbbbbbbbbbbbbbbbbbb1%%qiii=++++++                                ",
"                                    $$$bbbbbbbbbbbbbbbbbbbbbbbbbbbbbbbbbbb1%%qiii=++++++                                ",
"                                    $$$bbbbbbbbbbbbbbbbbbbbbbbbbbbbbbbbbbbkddaeeesdddddd,                               ",
"                                    $$$bbbbbbbbbbbbbbbbbbbbbbbbbbbbbbbbbbbbbbl+++vbbbbbb1+++                            ",
"                                    $$$bbbbbbbbbbbbbbbbbbbbbbbbbbbbbbbbbbbbbbl+++vbbbbbb1+++                            ",
"                                    $$$bbbbbbbbbbbbbbbbbbbbbbbbbbbbbbbbbbbbbbl+++vbbbbbb1+++                            ",
"                                    +++11111111111111111111111111111111111111>+++vbbbbbb1+++                            ",
"                                    +++$$$$$$$$$$$$$$$$$$$$$$$$$$$$$$$$$$$$$$#+++vbbbbbb1+++                            ",
"                                    +++$$$$$$$$$$$$$$$$$$$$$$$$$$$$$$$$$$$$$$#+++vbbbbbb1+++                            ",
"                                    +++ddddddddddddddddddddddddddddddddddddddddddhzzzzzz<++                             ",
"                                    +++bbbbbbbbbbbbbbbbbbbbbbbbbbbbbbbbbbbbbbbbbb+++++++                                ",
"                                 ++++++++++++++++++++++++++++++bbbbbbbbbbbbbbbbbb+++++++                                ",
"                                 ++++++++++++++++++++++++++++++bbbbbbbbbbbbbbbbbb+++++++                                ",
"                                 ++++++++++++++++++++++++++++++bbbbbbbbbbbbbbbbbb+++                                    ",
"                              +++cccccccccccccccccccccccccccccc+++bbbbbbbbbbbbbbb+++   +++++++++                        ",
"                              +++cccccccccccccccccccccccccccccc+++bbbbbbbbbbbbbbb+++   +++++++++                        ",
"                              +++cccccccccccccccccccccccccccccc+++bbbbbbbbbbbbbbb+++   +++++++++                        ",
"                           +++cccjjjjjjjjjjjjjjjjjjjjjjjjjjjjjj:::+++bbbbbbbbbbbbbbb+++bbbbbbbbb+++                     ",
"                           +++cccjjjjjjjjjjjjjjjjjjjjjjjjjjjjjj:::+++bbbbbbbbbbbbbbb+++bbbbbbbbb+++                     ",
"                           +++cccjjjjjjjjjjjjjjjjjjjjjjjjjjjjjj:::+++bbbbbbbbbbbbbbb+++bbbbbbbbb+++                     ",
"                           +++jjjjjjjjjjjjjjjjjjjjjjjjjjjjjj::::::+++bbbbbbbbbbbbbbb+++bbbbbbbbbbbb+++                  ",
"                           +++jjjjjjjjjjjjjjjjjjjjjjjjjjjjjj::::::+++bbbbbbbbbbbbbbb+++bbbbbbbbbbbb+++                  ",
"                           +++jjjjjjjjjjjjjjjjjjjjjjjjjjjjjj::::::+++bbbbbbbbbbbbbbb+++bbbbbbbbbbbb+++                  ",
"                           +++:::jjjjjjjjjjjjjjjjjjjjjjjjjjj::::::+++bbbbbbbbbbbbbbb+++bbbbbbbbbbbb+++                  ",
"                           +++:::jjjjjjjjjjjjjjjjjjjjjjjjjjj::::::+++bbbbbbbbbbbbbbb+++bbbbbbbbbbbb+++                  ",
"                           +++:::jjjjjjjjjjjjjjjjjjjjjjjjjjj::::::+++bbbbbbbbbbbbbbb+++bbbbbbbbbbbb+++                  ",
"                           +++::::::jjjjjjjjjjjjjjjjjjjjj:::::::::+++bbbbbbbbbbbbbbb+++bbbbbbbbbbbb+++                  ",
"                           +++::::::jjjjjjjjjjjjjjjjjjjjj:::::::::+++bbbbbbbbbbbbbbb+++bbbbbbbbbbbb+++                  ",
"                           +++::::::jjjjjjjjjjjjjjjjjjjjj:::::::::+++bbbbbbbbbbbbbbb+++bbbbbbbbbbbb+++                  ",
"                              +++::::::::::::::::::::::::::::::+++xxxbbbbbbbbbbbbbbb+++bbbbbbbbbbbb+++                  ",
"                              +++::::::::::::::::::::::::::::::+++xxxbbbbbbbbbbbbbbb+++bbbbbbbbbbbb+++                  ",
"                              +++::::::::::::::::::::::::::::::+++xxxbbbbbbbbbbbbbbb+++bbbbbbbbbbbb+++                  ",
"                              ++++++++++++::::::::::::::::::+++xxxbbbbbbbbbbbbbbbbbb+++bbbbbbbbbbbb+++                  ",
"                              ++++++++++++::::::::::::::::::+++xxxbbbbbbbbbbbbbbbbbb+++bbbbbbbbbbbb+++                  ",
"                              ++++++++++++::::::::::::::::::+++xxxbbbbbbbbbbbbbbbbbb+++bbbbbbbbbbbb+++                  ",
"                              +++xxxxxxxxx++++++++++++++++++xxxbbbbbbbbbbbbbbbbbbbbb+++bbbbbbbbbbbb+++                  ",
"                              +++xxxxxxxxx++++++++++++++++++xxxbbbbbbbbbbbbbbbbbbbbb+++bbbbbbbbbbbb+++                  ",
"                              +++xxxxxxxxx++++++++++++++++++xxxbbbbbbbbbbbbbbbbbbbbb+++bbbbbbbbbbbb+++                  ",
"                              +++xxxxxxxxxxxxxxxxxxxxxxxxxxxbbbbbbbbbbbbbbbbbbbbbbbb+++bbbbbbbbbbbb+++                  ",
"                              +++xxxxxxxxxxxxxxxxxxxxxxxxxxxbbbbbbbbbbbbbbbbbbbbbbbb+++bbbbbbbbbbbb+++                  ",
"                              +++xxxxxxxxxxxxxxxxxxxxxxxxxxxbbbbbbbbbbbbbbbbbbbbbbbb+++bbbbbbbbbbbb+++                  ",
"                              +++xxxxxxxxxxxxxxxxxxxxxxxxxxxbbbbbbbbbbbbbbbbbbbbbbbb+++bbbbbbbbbbbb+++                  ",
"                              +++bbbbbbbbbbbbbbbbbbbbbbbbbbbbbbbbbbbbbbbbbbbbbbbbbbb+++bbbbbbbbbbbb+++                  ",
"                              +++bbbbbbbbbbbbbbbbbbbbbbbbbbbbbbbbbbbbbbbbbbbbbbbbbbb+++bbbbbbbbbbbb+++                  ",
"                              +++bbbbbbbbbbbbbbbbbbbbbbbbbbbbbbbbbbbbbbbbbbbbbbbbbbb+++bbbbbbbbbbbb+++                  ",
"                              +++bbbbbbbbbbbbbbbbbbbbbbbbbbbbbbbbbbbbbbbbbbbbbbbbbbb+++bbbbbbbbbbbb+++                  ",
"                              +++bbbbbbbbbbbbbbbbbbbbbbbbbbbbbbbbbbbbbbbbbbbbbbbbbbb+++bbbbbbbbbbbb+++                  ",
"                              +++bbbbbbbbbbbbbbbbbbbbbbbbbbbbbbbbbbbbbbbbbbbbbbbbbbb+++bbbbbbbbbbbb+++                  ",
"                              +++bbbbbbbbbbbbbbbbbbbbbbbbbbbbbbbbbbbbbbbbbbbbbbbbbbb+++bbbbbbbbbbbb+++                  ",
"                              +++bbbbbbbbbbbbbbbbbbbbbbbbbbbbbbbbbbbbbbbbbbbbbbbbbbb+++bbbbbbbbbbbb+++                  ",
"                              +++bbbbbbbbbbbbbbbbbbbbbbbbbbbbbbbbbbbbbbbbbbbbbbbbbbb+++bbbbbbbbbbbb+++                  ",
"                              +++bbbbbbbbbbbbbbbbbbbbbbbbbbbbbbbbbbbbbbbbbbbbbbbbbbb+++bbbbbbbbbbbb+++                  ",
"                              +++bbbbbbbbbbbbbbbbbbbbbbbbbbbbbbbbbbbbbbbbbbbbbbbbbbb+++bbbbbbbbbbbb+++                  ",
"                              +++bbbbbbbbbbbbbbbbbbbbbbbbbbbbbbbbbbbbbbbbbbbbbbbbbbb+++bbbbbbbbbbbb+++                  ",
"                              +++bbbbbbbbbbbbbbbbbbbbbbbbbbbbbbbbbbbbbbbbbbbbbbbbbbb+++bbbbbbbbbbbb+++                  ",
"                              +++bbbbbbbbbbbbbbbbbbbbbbbbbbbbbbbbbbbbbbbbbbbbbbbbbbb+++bbbbbbbbbbbb+++                  ",
"                              +++bbbbbbbbbbbbbbbbbbbbbbbbbbbbbbbbbbbbbbbbbbbbbbbb++++++++++++++++++                     ",
"                              +++bbbbbbbbbbbbbbbbbbbbbbbbbbbbbbbbbbbbbbbbbbbbbbbb++++++++++++++++++                     ",
"                              +++bbbbbbbbbbbbbbbbbbbbbbbbbbbbbbbbbbbbbbbbbbbbbbbb++++++++++++++++++                     ",
"                              ++++++bbbbbbbbbbbbbbbbbbbbbbbbbbbbbbbbbbbbbbbbbb+++                                       ",
"                              ++++++bbbbbbbbbbbbbbbbbbbbbbbbbbbbbbbbbbbbbbbbbb+++                                       ",
"                              ++++++bbbbbbbbbbbbbbbbbbbbbbbbbbbbbbbbbbbbbbbbbb+++                                       ",
"                                    +++bbbbbbbbbbbbbbbbbbbbb+++++++++bbbbbb+++                                          ",
"                                    +++bbbbbbbbbbbbbbbbbbbbb+++++++++bbbbbb+++                                          ",
"                                    +++bbbbbbbbbbbbbbbbbbbbb+++++++++bbbbbb+++                                          ",
"                                       +++bbbbbb+++bbbbbbbbbbbbbbbbbb++++++                                             ",
"                                       +++bbbbbb+++bbbbbbbbbbbbbbbbbb++++++                                             ",
"                                       +++bbbbbb+++bbbbbbbbbbbbbbbbbb++++++                                             ",
"                                          +++++++++bbbbbbbbbbbbbbbbbbbbb+++                                             ",
"                                          +++++++++bbbbbbbbbbbbbbbbbbbbb+++                                             ",
"                                          +++++++++bbbbbbbbbbbbbbbbbbbbb+++                                             ",
"                                          +++bbb+++bbbbbbbbbbbbbbbbbbbbb+++                                             ",
"                                          +++bbb+++bbbbbbbbbbbbbbbbbbbbb+++                                             ",
"                                          +++bbb+++bbbbbbbbbbbbbbbbbbbbb+++                                             ",
"                                          +++bbbbbb+++bbbbbbbbbbbbbbbbbb+++                                             ",
"                                          +++bbbbbb+++bbbbbbbbbbbbbbbbbb+++                                             ",
"                                          +++bbbbbb+++bbbbbbbbbbbbbbbbbb+++                                             ",
"                                          +++bbbbbbbbb++++++++++++++++++                                                ",
"                                          +++bbbbbbbbb++++++++++++++++++                                                ",
"                                          +++bbbbbbbbb++++++++++++++++++                                                ",
"                                          +++bbbbbbbbbbbbbbb+++                                                         ",
"                                          +++bbbbbbbbbbbbbbb+++                                                         ",
"                                          +++bbbbbbbbbbbbbbb+++                                                         ",
"                                          +++bbbbbbbbbbbbbbb+++                                                         ",
"                                          +++bbbbbbbbbbbbbbb+++                                                         ",
"                                          +++bbbbbbbbbbbbbbb+++                                                         ",
"                                             +++++++++++++++                                                            ",
"                                             +++++++++++++++                                                            ",
"                                             +++++++++++++++                                                            ",
"                                                                                                                        ",
"                                                                                                                        ",
"                                                                                                                        ",
"                                                                                                                        ",
"                                                                                                                        ",
"                                                                                                                        "
};
