/* XPM */
static char *_80e85109b9b442dd6477db6f789b0dcDjrKXdF71LGE9l4r[] = {
/* columns rows colors chars-per-pixel */
"64 64 3 1 ",
"  c gray10",
". c gray15",
"X c gray82",
/* pixels */
"XXXXXXXXXXXXXXXXXXXXXXXXXXXXXXXXXXXXXXXXXXXXXXXXXXXXXXXXXXXXXXXX",
"X............. .. ............................ .. .............X",
"X..............................................................X",
"X..............................................................X",
"X..............................................................X",
"X..............................................................X",
"X..............................................................X",
"X..............................................................X",
"X..............................................................X",
"X..............................................................X",
"X..............................................................X",
"X..............................................................X",
"X..............................................................X",
"X..............................................................X",
"X ............................    ............................ X",
"X..............................  ..............................X",
"X..............................  ..............................X",
"X ............................    ............................ X",
"X..............................................................X",
"X..............................................................X",
"X..............................................................X",
"X..............................................................X",
"X..............................................................X",
"X..............................................................X",
"X..............................................................X",
"X..............................................................X",
"X..............................................................X",
"X..............................................................X",
"X..............................................................X",
"X..............................................................X",
"X............. .. ............................ .. .............X",
"X.............    ............................    .............X",
"X.............    ............................    .............X",
"X............. .. ............................ .. .............X",
"X..............................................................X",
"X..............................................................X",
"X..............................................................X",
"X..............................................................X",
"X..............................................................X",
"X..............................................................X",
"X..............................................................X",
"X..............................................................X",
"X..............................................................X",
"X..............................................................X",
"X..............................................................X",
"X..............................................................X",
"X ............................    ............................ X",
"X..............................  ..............................X",
"X..............................  ..............................X",
"X ............................    ............................ X",
"X..............................................................X",
"X..............................................................X",
"X..............................................................X",
"X..............................................................X",
"X..............................................................X",
"X..............................................................X",
"X..............................................................X",
"X..............................................................X",
"X..............................................................X",
"X..............................................................X",
"X..............................................................X",
"X..............................................................X",
"X............. .. ............................ .. .............X",
"XXXXXXXXXXXXXXXXXXXXXXXXXXXXXXXXXXXXXXXXXXXXXXXXXXXXXXXXXXXXXXXX"
};
